<?xml version="1.0" encoding="UTF-8"?>
<svg id="Capa_1" data-name="Capa 1" xmlns="http://www.w3.org/2000/svg" viewBox="0 0 589.68 393.84">
  <defs>
    <style>
      .cls-1 {
        fill: none;
        stroke-width: 3px;
      }

      .cls-1, .cls-2 {
        stroke: #3c3b6f;
      }

      .cls-1, .cls-2, .cls-3 {
        stroke-miterlimit: 10;
      }

      .cls-2 {
        stroke-width: 5px;
      }

      .cls-2, .cls-4, .cls-3 {
        fill: #ea5b0c;
      }

      .cls-5 {
        fill: #e9511d;
      }

      .cls-5, .cls-6, .cls-4 {
        stroke-width: 0px;
      }

      .cls-6 {
        fill: #fff;
      }

      .cls-3 {
        stroke: #ea5b0c;
        stroke-width: 2px;
      }
    </style>
  </defs>
  <g>
    <path class="cls-5" d="m274.27,227.78c-8.91-8.47-3.98-34.86-14.44-41.33-8.28-5.12-21.62-19.44-31.18-21.28s-23.18-11.22-52.86-1.14c-9.22,3.13-24.5,13.35-26.1,23.52-1.87,11.89-4.11,6.86-.01,34.32,2.02,13.53,13.61,24.44,23.81,31.99,10.19,7.56,23.56,10.67,36.05,8.4,11.66-2.12,22-8.56,32.92-13.19,10.91-4.63,23.78-7.37,34.37-2.06-9.99-8.55-23.09-13.38-36.24-13.34-9.25.03-18.34,2.36-27.57,3.02s-19.22-.65-26.15-6.77c-5.43-4.8-8.31-12.88-5.62-19.61,2.46-6.16,8.97-9.98,15.53-10.91s16.06-1.45,22.65-.76c13.03,1.37,46.4,16.57,54.86,29.14"/>
    <path class="cls-5" d="m275.59,226.45c-3.16-3.07-4.16-8.09-4.92-12.36-.95-5.32-1.4-10.73-2.53-16.03-.95-4.42-2.45-9.36-6.1-12.33-1.94-1.58-4.14-2.84-6.11-4.4-2.48-1.97-4.9-4.02-7.35-6.03-4.81-3.95-9.8-8.17-15.56-10.67-1.93-.83-3.89-1.21-5.9-1.76-1.65-.44-3.26-.98-4.88-1.51-4.05-1.31-8.15-2.48-12.37-3.12-5.95-.9-11.93-.87-17.9-.06-13.67,1.85-27.11,6.92-36.98,16.85-2.14,2.15-4.13,4.59-5.5,7.31-1.12,2.24-1.53,4.5-1.99,6.92-.46,2.36-1.18,4.67-1.6,7.04-.54,3.06-.44,6.14-.18,9.22.23,2.79.58,5.56.95,8.33.51,3.82.85,7.75,1.81,11.49,1.8,6.99,5.94,13.16,10.76,18.43,4.75,5.19,10.36,10.05,16.34,13.76,6.43,4,13.79,6.37,21.32,7.1,7.9.76,15.71-.65,23.11-3.41,14.79-5.53,28.73-15.91,45.19-15.22,3.69.15,7.34.99,10.67,2.62,1.79.88,4-1.48,2.27-2.94-6.27-5.33-13.6-9.31-21.51-11.61-8.39-2.44-16.96-2.67-25.59-1.6s-17.35,3.01-26.14,2.34c-7.24-.55-15.16-3.11-19.52-9.3-4.09-5.81-4.71-13.7.57-18.99,5.37-5.4,13.3-5.79,20.45-6.17,3.92-.21,7.86-.27,11.77.04,1.34.11,1.8.16,3.02.39,1.11.21,2.21.46,3.31.75,5.49,1.43,10.84,3.48,16.03,5.76,5.91,2.6,11.69,5.56,17.19,8.95,4.68,2.89,9.35,6.09,13.08,10.18.73.8,1.27,1.46,1.84,2.3,1.35,1.98,4.6.11,3.24-1.89-3.08-4.53-7.57-8-12.04-11.08-5.53-3.8-11.45-7.03-17.5-9.91-5.71-2.71-11.59-5.15-17.63-7.01-5.65-1.74-11.2-2.44-17.12-2.39-4.12.03-8.24.29-12.33.75s-7.66,1.21-11.16,3.12c-3.29,1.8-6.24,4.5-7.95,7.88-1.79,3.53-2.18,7.5-1.4,11.36,1.59,7.91,7.71,13.75,15.01,16.63,7.91,3.13,16.69,2.85,24.97,1.79,9.41-1.21,18.75-3.17,28.28-2.06,8.39.98,16.55,4.06,23.58,8.72,1.71,1.14,3.35,2.37,4.92,3.71.76-.98,1.51-1.96,2.27-2.94-14.64-7.19-30.8-.73-44.37,5.77-7.18,3.44-14.38,7.05-22.19,8.84-7.19,1.65-14.73,1.43-21.84-.52-7-1.91-13.01-5.55-18.6-10.09-5.36-4.35-10.44-9.26-14.18-15.09-1.84-2.87-3.35-5.93-4.29-9.22-1.02-3.57-1.36-7.36-1.85-11.04-.6-4.47-1.26-9.03-1.19-13.55,0-.66.04-1.31.1-1.96.02-.25.05-.49.08-.74-.07.59.04-.25.07-.43.18-1.04.44-2.06.7-3.08.83-3.29,1-7,2.53-10.04,2.72-5.42,7.78-9.61,12.76-12.89,5.53-3.65,11.39-5.96,17.79-7.63,11.08-2.89,22.36-3.27,33.41-.14,3.35.95,6.62,2.2,9.99,3.05,2,.5,3.9.92,5.77,1.84,2.65,1.31,5.12,2.99,7.5,4.75,5.04,3.72,9.68,7.95,14.64,11.77,1.78,1.38,4.02,2.56,5.53,4.02,1.35,1.31,2.29,3.05,2.97,4.88,3.56,9.59,2.35,20.38,6.36,29.84.84,1.98,1.95,3.84,3.5,5.35,1.73,1.68,4.39-.97,2.65-2.65h0Z"/>
  </g>
  <g>
    <path class="cls-3" d="m304.4,336.62c-10.28-8.45-20.57-16.91-30.85-25.37,7.21-6.63,8.58-8.27,11.37-13.9,3.95-7.78,9.45-27.53,6.45-38.9-2.39-9.09-7.2-10.92-13.71-20.57-2.83-4.2-4.78-8.09-6.17-11.76-5.64-14.81-2.24-26.04-11.66-39.67-1.97-2.84-13.96-14.15-31.18-21.28-20.59-8.53-48.65-11.09-75.95,13.93,5.81-7.44,70.34-77.59,90.57-87.77,21.65-10.9,42.2-16.68,61.13-18.25"/>
    <path class="cls-3" d="m304.4,336.62c10.28-8.45,20.57-16.91,30.85-25.37-7.21-6.63-8.58-8.27-11.37-13.9-3.95-7.78-9.45-27.53-6.45-38.9,2.39-9.09,7.2-10.92,13.71-20.57,2.83-4.2,4.78-8.09,6.17-11.76,5.64-14.81,2.24-26.04,11.66-39.67,1.97-2.84,13.96-14.15,31.18-21.28,20.59-8.53,48.65-11.09,75.95,13.93-5.81-7.44-70.34-77.59-90.57-87.77-21.65-10.9-42.2-16.68-61.13-18.25"/>
  </g>
  <path class="cls-6" d="m283.57,148.47c0-11.13-.49-23.43-1.16-36.45-.08-1.54.12-3.27,1.26-3.33,1.57-.08,7-.11,8.07-.12,6.54-.07,7.16-.46,13.7-.53.02,4.16-.19,8.14,0,12.26.06,1.43.38,2.9,1.2,4.07,1.24,1.75,3.88,5.65,5.96,6.17,7.7,1.91,15.2.57,23.09-.25,2.41-.25,7.06.4,9.37,1.17,3.16,1.04,2.99,3.08,3.9,6.28.91,3.2,1.01,6.58,1.85,9.8,1.16,4.47,3.74,8.72,3.42,13.33-.34,4.92-3.97,9.03-8.01,11.86s-8.65,4.82-12.52,7.88c-3.87,3.06-7.06,7.66-6.57,12.57.21,2.13,1.09,4.34.29,6.33-.9,2.23-2.75,5.29-6.05,2.89-4.73-3.44-9.15-6.75-12.03-11.85-4.19-7.4-9.28-14.29-15.14-20.46-1.57-1.66-4.15-3.35-5.91-1.88-.84.7-1.08,1.88-1.61,2.84-1.38,2.51-4.82,3.33-7.53,2.41s-3.41-5.98-4.89-8.43c-1.15-1.9-1.53-1.35-2.82-3.16-1.27-1.79-4.76-3.1-6.37-4.58-3.51-3.21-7.01-6.42-10.52-9.63,9.33.39,20.22.51,29.02.81"/>
  <path class="cls-1" d="m165.65,251.31c-47.28,60.09-73.2,107.07-61.72,116.56,13.78,11.37,76.96-35.02,149.02-107.48,4.42-4.43,8.87-8.97,13.33-13.6,5.11-5.28,10.26-10.7,15.41-16.21,2.07-2.21,4.15-4.43,6.22-6.68,44.49-48.17,81.11-94.47,103.78-129.71,20.97-32.58,30.02-55.68,22.34-62.02-9.16-7.56-40.16,10.41-81.07,44.59"/>
  <polygon class="cls-2" points="331.72 178.83 330.03 178.26 328.61 179.33 328.63 177.55 327.18 176.52 328.88 176 329.4 174.3 330.43 175.75 332.21 175.73 331.14 177.15 331.72 178.83"/>
  <g>
    <path class="cls-4" d="m332.21,225.72c6.9-7.94,6.53-32.81,16.99-39.27,8.28-5.12,21.62-19.44,31.18-21.28s23.18-11.22,52.86-1.14c9.22,3.13,24.5,13.35,26.1,23.52,1.87,11.89,4.11,6.86.01,34.32-2.02,13.53-13.61,24.44-23.81,31.99-10.19,7.56-23.56,10.67-36.05,8.4-11.66-2.12-22-8.56-32.92-13.19s-23.78-7.37-34.37-2.06c9.99-8.55,23.09-13.38,36.24-13.34,9.25.03,18.34,2.36,27.57,3.02s19.22-.65,26.15-6.77c5.43-4.8,8.31-12.88,5.62-19.61-2.46-6.16-8.97-9.98-15.53-10.91s-13.43-1.76-20.06-1.9c-10.74-.23-39.89,1.03-55.89,28.34"/>
    <path class="cls-4" d="m333.53,227.05c2.95-3.46,4.27-8.09,5.44-12.4,1.41-5.19,2.5-10.48,4.23-15.58,1.37-4.04,3.26-8.63,6.95-11,4.86-3.13,9.19-7.03,13.66-10.68s9.16-7.66,14.57-9.69c1.68-.63,3.47-.89,5.19-1.38,1.58-.45,3.14-.98,4.71-1.48,3.98-1.28,8.01-2.4,12.16-3,5.62-.81,11.41-.68,17.02.17,12.97,1.97,25.83,6.87,34.9,16.69,1.82,1.97,3.52,4.21,4.48,6.74.71,1.87.88,3.89,1.29,5.84.46,2.19,1.11,4.34,1.48,6.55.07.4,0-.02,0,.03.01.12.03.24.04.37.03.3.06.6.08.9.04.67.06,1.34.06,2.01,0,1.84-.15,3.68-.32,5.51-.27,2.9-.65,5.78-1.04,8.67-.5,3.64-.87,7.35-2.01,10.86-2.13,6.56-6.47,12.23-11.29,17.06s-10.22,9.4-16.22,12.59c-6.39,3.4-13.62,5.21-20.85,5.27-7.71.07-15.08-2.1-22.1-5.13-14.05-6.08-28.19-15.25-44.19-13.57-3.67.39-7.17,1.35-10.49,2.98l2.27,2.94c6.52-5.54,14.35-9.42,22.66-11.38,9.07-2.14,18.09-1.32,27.21.04s17.66,2.61,26.48.78c7.79-1.62,15.28-6,18.77-13.41,3.39-7.19,2.47-15.64-3.59-21.12-2.84-2.57-6.39-4.35-10.11-5.25-2.19-.53-4.46-.74-6.7-1.03-2.47-.32-4.95-.61-7.43-.84-10.4-.96-20.88-.66-31,2.13-12.83,3.53-24.13,11-31.97,21.81-1.13,1.55-2.17,3.17-3.15,4.82-1.23,2.08,2.01,3.97,3.24,1.89,6.62-11.23,16.85-19.57,29.19-23.78,8.19-2.79,16.68-3.84,25.31-3.63,4.73.11,9.44.55,14.13,1.13,3.95.49,8.01.84,11.64,2.62,3.18,1.56,5.93,3.91,7.51,7.12,1.57,3.19,1.5,6.93.44,10.27-2.31,7.29-8.99,11.67-16.14,13.4-8.21,1.98-16.69.8-24.92-.42-8.92-1.32-17.7-2.37-26.66-.81-8.11,1.41-15.98,4.62-22.75,9.3-1.67,1.15-3.27,2.4-4.82,3.71-1.71,1.45.47,3.83,2.27,2.94,14.75-7.24,31.27,1.34,44.62,7.7,7.22,3.44,14.67,6.78,22.64,7.97,7.49,1.12,15.2.5,22.41-1.85,7.09-2.31,13.12-6.28,18.83-11,5.43-4.49,10.48-9.59,14.25-15.58,1.88-2.98,3.42-6.22,4.4-9.61,1.07-3.67,1.41-7.56,1.92-11.34.64-4.71,1.36-9.51,1.31-14.28-.02-2.41-.43-4.74-1.01-7.07-.83-3.32-1.1-6.91-2.44-10.06-2.48-5.82-7.54-10.35-12.57-13.98s-11.02-6.57-17.23-8.44c-11.92-3.6-24.41-4.76-36.58-1.76-3.66.9-7.19,2.19-10.8,3.25-1.7.5-3.47.76-5.14,1.34-2.71.95-5.22,2.39-7.6,3.97-5.39,3.59-10.26,7.9-15.26,11.98-2.07,1.69-4.17,3.36-6.43,4.8-2.01,1.29-3.61,2.9-4.95,4.88-2.95,4.36-4.43,9.68-5.76,14.71s-2.37,10.31-4.24,15.24c-.65,1.7-1.61,3.66-2.63,4.86-1.56,1.83,1.08,4.49,2.65,2.65h0Z"/>
  </g>
</svg>